<svg width="1200" height="600" viewBox="0 0 1200 600" fill="none" xmlns="http://www.w3.org/2000/svg">
  <!-- Background -->
  <rect width="1200" height="600" rx="16" fill="#F9FAFB" class="dark:fill-gray-800"/>
  
  <!-- Header -->
  <rect x="24" y="24" width="1152" height="64" rx="8" fill="#E0E7FF" class="dark:fill-indigo-900/50"/>
  
  <!-- Sidebar -->
  <rect x="24" y="104" width="240" height="472" rx="8" fill="#E0E7FF" class="dark:fill-indigo-900/30"/>
  
  <!-- Main Content -->
  <rect x="280" y="104" width="896" height="280" rx="8" fill="#EEF2FF" class="dark:fill-indigo-950/50"/>
  
  <!-- Stats Row -->
  <rect x="280" y="400" width="280" height="176" rx="8" fill="#E0E7FF" class="dark:fill-indigo-900/40"/>
  <rect x="576" y="400" width="280" height="176" rx="8" fill="#E0E7FF" class="dark:fill-indigo-900/40"/>
  <rect x="872" y="400" width="304" height="176" rx="8" fill="#E0E7FF" class="dark:fill-indigo-900/40"/>
  
  <!-- Text Placeholders -->
  <rect x="48" y="48" width="120" height="8" rx="4" fill="#818CF8" class="dark:fill-indigo-400"/>
  <rect x="48" y="136" width="120" height="4" rx="2" fill="#818CF8" class="dark:fill-indigo-400 opacity-70"/>
  <rect x="48" y="184" width="80" height="4" rx="2" fill="#818CF8" class="dark:fill-indigo-400 opacity-50"/>
  <rect x="48" y="224" width="80" height="4" rx="2" fill="#818CF8" class="dark:fill-indigo-400 opacity-50"/>
  <rect x="48" y="264" width="80" height="4" rx="2" fill="#818CF8" class="dark:fill-indigo-400 opacity-50"/>
  
  <!-- Graph Placeholder -->
  <path d="M320 320L360 240L400 280L440 200L480 280L520 160L560 240L600 200L640 280L680 200L720 240L760 180L800 240L840 200L880 240L920 200L960 240L1000 200L1040 240L1080 200L1120 240" stroke="#818CF8" stroke-width="3" stroke-linecap="round" stroke-linejoin="round" class="dark:stroke-indigo-400"/>
  <path d="M320 320L360 240L400 280L440 200L480 280L520 160L560 240L600 200L640 280L680 200L720 240L760 180L800 240L840 200L880 240L920 200L960 240L1000 200L1040 240L1080 200L1120 240" stroke="url(#graphGradient)" stroke-width="3" stroke-linecap="round" stroke-linejoin="round" opacity="0.8"/>
  
  <defs>
    <linearGradient id="graphGradient" x1="320" y1="160" x2="1120" y2="160" gradientUnits="userSpaceOnUse">
      <stop stop-color="#4F46E5" class="dark:stop-color="#A78BFA"/>
      <stop offset="1" stop-color="#7C3AED" class="dark:stop-color="#C4B5FD"/>
    </linearGradient>
  </defs>
</svg>
