<svg width="1200" height="600" viewBox="0 0 1200 600" fill="none" xmlns="http://www.w3.org/2000/svg">
  <!-- Main Background -->
  <rect width="1200" height="600" rx="16" fill="#F9FAFB" class="dark:fill-gray-800"/>
  
  <!-- Top Navigation -->
  <rect x="24" y="24" width="1152" height="64" rx="8" fill="#E0E7FF" class="dark:fill-indigo-900/50"/>
  
  <!-- Sidebar -->
  <rect x="24" y="104" width="240" height="472" rx="8" fill="#E0E7FF" class="dark:fill-indigo-900/30"/>
  
  <!-- Resume Preview Area -->
  <rect x="280" y="104" width="600" height="472" rx="8" fill="white" class="dark:fill-gray-700"/>
  
  <!-- Resume Content -->
  <rect x="300" y="132" width="560" height="40" rx="4" fill="#E0E7FF" class="dark:fill-indigo-900/30"/>
  <rect x="300" y="188" width="400" height="24" rx="4" fill="#E0E7FF" class="dark:fill-indigo-900/20"/>
  <rect x="300" y="228" width="500" height="16" rx="4" fill="#E0E7FF" class="dark:fill-indigo-900/10"/>
  
  <!-- Experience Section -->
  <rect x="300" y="280" width="120" height="8" rx="4" fill="#E0E7FF" class="dark:fill-indigo-900/30"/>
  <rect x="300" y="320" width="400" height="6" rx="3" fill="#E0E7FF" class="dark:fill-indigo-900/20"/>
  <rect x="300" y="340" width="500" height="4" rx="2" fill="#E0E7FF" class="dark:fill-indigo-900/10"/>
  
  <!-- Skills Section -->
  <rect x="300" y="400" width="80" height="8" rx="4" fill="#E0E7FF" class="dark:fill-indigo-900/30"/>
  <rect x="300" y="440" width="60" height="24" rx="12" fill="#E0E7FF" class="dark:fill-indigo-900/20"/>
  <rect x="380" y="440" width="80" height="24" rx="12" fill="#E0E7FF" class="dark:fill-indigo-900/20"/>
  <rect x="480" y="440" width="70" height="24" rx="12" fill="#E0E7FF" class="dark:fill-indigo-900/20"/>
  
  <!-- Template Selection Panel -->
  <rect x="896" y="104" width="280" height="472" rx="8" fill="#F1F5F9" class="dark:fill-gray-700/50"/>
  <rect x="916" y="132" width="240" height="100" rx="4" fill="#E0E7FF" class="dark:fill-indigo-900/20"/>
  <rect x="916" y="248" width="240" height="80" rx="4" fill="#E0E7FF" class="dark:fill-indigo-900/20"/>
  <rect x="916" y="348" width="240" height="80" rx="4" fill="#E0E7FF" class="dark:fill-indigo-900/20"/>
  
  <!-- Toolbar -->
  <rect x="280" y="520" width="600" height="40" rx="20" fill="#E0E7FF" class="dark:fill-indigo-900/30"/>
  
  <!-- Icons -->
  <circle cx="310" cy="540" r="12" fill="#818CF8" class="dark:fill-indigo-400"/>
  <circle cx="350" cy="540" r="12" fill="#818CF8" class="dark:fill-indigo-400 opacity-70"/>
  <circle cx="390" cy="540" r="12" fill="#818CF8" class="dark:fill-indigo-400 opacity-50"/>
  
  <!-- Sidebar Icons -->
  <circle cx="48" cy="144" r="4" fill="#818CF8" class="dark:fill-indigo-400"/>
  <circle cx="88" cy="144" r="4" fill="#818CF8" class="dark:fill-indigo-400 opacity-50"/>
  <circle cx="128" cy="144" r="4" fill="#818CF8" class="dark:fill-indigo-400 opacity-50"/>
  
  <!-- Navigation Text -->
  <rect x="48" y="200" width="80" height="4" rx="2" fill="#818CF8" class="dark:fill-indigo-400 opacity-70"/>
  <rect x="48" y="240" width="60" height="4" rx="2" fill="#818CF8" class="dark:fill-indigo-400 opacity-50"/>
  <rect x="48" y="280" width="70" height="4" rx="2" fill="#818CF8" class="dark:fill-indigo-400 opacity-50"/>
  <rect x="48" y="320" width="50" height="4" rx="2" fill="#818CF8" class="dark:fill-indigo-400 opacity-50"/>
  
  <!-- Logo -->
  <rect x="48" y="48" width="120" height="8" rx="4" fill="#818CF8" class="dark:fill-indigo-400"/>
  
  <!-- Buttons -->
  <rect x="1000" y="40" width="160" height="32" rx="16" fill="#4F46E5" class="dark:fill-indigo-600"/>
  
  <!-- User Menu -->
  <circle cx="1100" cy="56" r="12" fill="#818CF8" class="dark:fill-indigo-400"/>
  
  <!-- Responsive for dark mode -->
  <style>
    @media (prefers-color-scheme: dark) {
      .dark\:fill-gray-800 { fill: #1F2937; }
      .dark\:fill-indigo-900\/50 { fill: rgba(49, 46, 129, 0.5); }
      .dark\:fill-indigo-900\/30 { fill: rgba(49, 46, 129, 0.3); }
      .dark\:fill-gray-700 { fill: #374151; }
      .dark\:fill-indigo-900\/20 { fill: rgba(49, 46, 129, 0.2); }
      .dark\:fill-indigo-900\/10 { fill: rgba(49, 46, 129, 0.1); }
      .dark\:fill-gray-700\/50 { fill: rgba(55, 65, 81, 0.5); }
      .dark\:fill-indigo-400 { fill: #818CF8; }
      .dark\:fill-indigo-600 { fill: #4F46E5; }
    }
  </style>
</svg>
