<svg width="600" height="400" viewBox="0 0 600 400" fill="none" xmlns="http://www.w3.org/2000/svg">
  <!-- Background gradient -->
  <rect width="600" height="400" rx="16" fill="url(#bg-gradient)"/>
  
  <!-- Glassmorphism card 1 -->
  <g filter="url(#glass-effect)">
    <rect x="50" y="80" width="220" height="160" rx="16" fill="rgba(255, 255, 255, 0.1)"/>
    <rect x="50" y="80" width="220" height="160" rx="16" stroke="url(#border-gradient)" stroke-width="2" stroke-dasharray="4 4"/>
  </g>
  
  <!-- Glassmorphism card 2 -->
  <g filter="url(#glass-effect)">
    <rect x="50" y="260" width="500" height="120" rx="16" fill="rgba(255, 255, 255, 0.08)"/>
    <rect x="50" y="260" width="500" height="120" rx="16" stroke="url(#border-gradient)" stroke-width="2" stroke-dasharray="4 4"/>
  </g>
  
  <!-- Dashboard elements -->
  <rect x="70" y="100" width="60" height="60" rx="8" fill="url(#gradient1)"/>
  <rect x="150" y="100" width="100" height="30" rx="4" fill="url(#gradient2)"/>
  <rect x="150" y="140" width="100" height="10" rx="4" fill="url(#gradient2)" fill-opacity="0.6"/>
  <rect x="70" y="180" width="180" height="10" rx="4" fill="url(#gradient2)" fill-opacity="0.4"/>
  <rect x="70" y="200" width="140" height="10" rx="4" fill="url(#gradient2)" fill-opacity="0.4"/>
  
  <!-- Graph visualization -->
  <path d="M300 100L340 140L380 120L420 160L460 100L500 180" stroke="url(#gradient1)" stroke-width="4" stroke-linecap="round" stroke-linejoin="round"/>
  <circle cx="300" cy="100" r="6" fill="url(#gradient1)"/>
  <circle cx="340" cy="140" r="6" fill="url(#gradient1)"/>
  <circle cx="380" cy="120" r="6" fill="url(#gradient1)"/>
  <circle cx="420" cy="160" r="6" fill="url(#gradient1)"/>
  <circle cx="460" cy="100" r="6" fill="url(#gradient1)"/>
  <circle cx="500" cy="180" r="6" fill="url(#gradient1)"/>
  
  <!-- Document icon with CV text -->
  <path d="M300 280H500V360H300V280Z" fill="url(#gradient2)"/>
  <path d="M320 300H480V310H320V300ZM320 320H450V330H320V320ZM320 340H420V350H320V340Z" fill="white"/>
  <path d="M300 280L320 260H340V300H300V280Z" fill="url(#gradient1)"/>
  
  <!-- Decorative elements -->
  <circle cx="550" cy="90" r="10" fill="url(#gradient1)" fill-opacity="0.6"/>
  <circle cx="550" cy="130" r="6" fill="url(#gradient2)" fill-opacity="0.6"/>
  <circle cx="70" cy="320" r="8" fill="url(#gradient1)" fill-opacity="0.4"/>
  <circle cx="550" cy="350" r="12" fill="url(#gradient2)" fill-opacity="0.4"/>
  
  <defs>
    <!-- Gradients -->
    <linearGradient id="gradient1" x1="0" y1="0" x2="1" y2="1" gradientUnits="userSpaceOnUse">
      <stop stop-color="#A78BFA"/>
      <stop offset="1" stop-color="#F472B6"/>
    </linearGradient>
    
    <linearGradient id="gradient2" x1="0" y1="0" x2="1" y2="1" gradientUnits="userSpaceOnUse">
      <stop stop-color="#8B5CF6"/>
      <stop offset="1" stop-color="#EC4899"/>
    </linearGradient>
    
    <linearGradient id="bg-gradient" x1="0" y1="0" x2="1" y2="1">
      <stop offset="0%" stop-color="#1E1B4B"/>
      <stop offset="100%" stop-color="#312E81"/>
    </linearGradient>
    
    <linearGradient id="border-gradient" x1="0" y1="0" x2="1" y2="1">
      <stop offset="0%" stop-color="#A78BFA" stop-opacity="0.5"/>
      <stop offset="100%" stop-color="#F472B6" stop-opacity="0.5"/>
    </linearGradient>
    
    <!-- Glass effect filter -->
    <filter id="glass-effect" x="40" y="70" width="530" height="320" filterUnits="userSpaceOnUse" color-interpolation-filters="sRGB">
      <feFlood flood-opacity="0" result="BackgroundImageFix"/>
      <feBlend mode="normal" in="SourceGraphic" in2="BackgroundImageFix" result="shape"/>
      <feGaussianBlur stdDeviation="15" result="effect1_foregroundBlur"/>
    </filter>
  </defs>
</svg>