<svg width="250" height="250" viewBox="0 0 250 250" xmlns="http://www.w3.org/2000/svg">
  <defs>
    <!-- Gradient for the document -->
    <linearGradient id="docGradient" x1="0%" y1="0%" x2="100%" y2="100%">
      <stop offset="0%" stop-color="#4F46E5" />
      <stop offset="100%" stop-color="#8B5CF6" />
    </linearGradient>
    
    <!-- Gradient for waves -->
    <linearGradient id="waveGradient" x1="0%" y1="0%" x2="100%" y2="100%">
      <stop offset="0%" stop-color="#818CF8" />
      <stop offset="100%" stop-color="#4F46E5" />
    </linearGradient>
    
    <!-- Subtle shadow filter -->
    <filter id="shadow" x="-10%" y="-10%" width="120%" height="120%">
      <feDropShadow dx="0" dy="4" stdDeviation="4" flood-color="#00000015" />
    </filter>
  </defs>
  
  <!-- Background circle with subtle gradient -->
  <circle cx="125" cy="125" r="120" fill="#F8FAFC" />
  
  <!-- Document shape -->
  <g transform="translate(50, 50) scale(0.9)" filter="url(#shadow)">
    <path d="M40,0 L140,0 C145.5,0 150,4.5 150,10 L150,170 C150,175.5 145.5,180 140,180 L10,180 C4.5,180 0,175.5 0,170 L0,40 C0,34.5 4.5,30 10,30 L30,30 L30,10 C30,4.5 34.5,0 40,0Z" 
          fill="url(#docGradient)" />
    <rect x="30" y="30" width="120" height="10" rx="2" fill="white" fill-opacity="0.3" />
    <rect x="30" y="50" width="100" height="5" rx="2" fill="white" fill-opacity="0.7" />
    <rect x="30" y="65" width="80" height="5" rx="2" fill="white" fill-opacity="0.7" />
    <rect x="30" y="80" width="90" height="5" rx="2" fill="white" fill-opacity="0.7" />
    <rect x="30" y="110" width="110" height="5" rx="2" fill="white" fill-opacity="0.7" />
    <rect x="30" y="125" width="70" height="5" rx="2" fill="white" fill-opacity="0.7" />
    <rect x="30" y="140" width="100" height="5" rx="2" fill="white" fill-opacity="0.7" />
    <rect x="30" y="155" width="60" height="5" rx="2" fill="white" fill-opacity="0.7" />
  </g>
  
  <!-- Rising waves -->
  <g transform="translate(0, 180)">
    <!-- Main wave -->
    <path d="M0,30 C50,-10 100,10 150,20 C200,30 250,20 300,30 C350,40 400,60 450,50 C500,40 550,0 600,10 C650,20 700,60 750,50 C800,40 850,0 900,10 C950,20 1000,60 1050,50" 
          stroke="url(#waveGradient)" 
          stroke-width="4" 
          fill="none" 
          stroke-linecap="round" 
          stroke-linejoin="round"
          stroke-dasharray="1000"
          stroke-dashoffset="1000"
          style="animation: draw 3s ease-out forwards, float 6s ease-in-out infinite 3s;">
      <animate attributeName="stroke-dashoffset" 
               from="1000" 
               to="0" 
               dur="2s" 
               fill="freeze" />
    </path>
    
    <!-- Secondary wave -->
    <path d="M-50,50 C0,10 50,30 100,40 C150,50 200,40 250,50 C300,60 350,80 400,70 C450,60 500,20 550,30 C600,40 650,80 700,70 C750,60 800,20 850,30 C900,40 950,80 1000,70" 
          stroke="url(#waveGradient)" 
          stroke-width="3" 
          stroke-opacity="0.7"
          fill="none" 
          stroke-linecap="round" 
          stroke-linejoin="round"
          style="animation: float 8s ease-in-out infinite 1s;"/>
  </g>
  
  <!-- Animation for the waves -->
  <style>
    @keyframes draw {
      to {
        stroke-dashoffset: 0;
      }
    }
    @keyframes float {
      0%, 100% {
        transform: translateY(0);
      }
      50% {
        transform: translateY(-10px);
      }
    }
  </style>
</svg>
